<?xml version="1.0" standalone="no"?>
<!DOCTYPE svg PUBLIC "-//W3C//DTD SVG 1.1//EN" "http://www.w3.org/Graphics/SVG/1.1/DTD/svg11.dtd">
<svg t="1585151411629" viewBox="0 0 588 2112" version="1.1" xmlns="http://www.w3.org/2000/svg" p-id="1446" xmlns:xlink="http://www.w3.org/1999/xlink" width="100" height="200">
<defs>
<style type="text/css">
</style>
</defs>
<path d="M504.832 405.632L433.92 334.72c-3.968-3.968-3.968-10.496 0-14.464l70.912-70.912c3.968-3.968 10.496-3.968 14.464 0l70.912 70.912c3.968 3.968 3.968 10.496 0 14.464l-70.912 70.912c-4.096 3.968-10.496 3.968-14.464 0z" fill="#55AEFF" p-id="1447">
</path>
<path d="M692.352 270.72c-13.056 0-25.728 4.48-35.712 12.672-2.688 2.176-5.248 4.736-7.552 7.424L631.04 308.864l-40.96-40.96 31.872-31.872c21.504-21.504 21.504-56.448 0-77.952-10.368-10.368-24.192-16.128-38.912-16.128s-28.544 5.76-38.912 16.128l-32.128 32-31.872-31.872c-10.368-10.368-24.192-16.128-38.912-16.128s-28.544 5.76-38.912 16.128c-21.504 21.504-21.504 56.448 0 77.952l31.744 31.744-41.088 40.96-19.584-19.584c-1.28-1.28-2.56-2.688-3.84-3.84-10.368-9.344-23.808-14.464-37.76-14.464-31.232 0-56.576 25.344-56.576 56.576 0 31.232 25.344 56.576 56.576 56.576 12.672 0 24.576-4.096 34.56-11.776 3.456-2.688 6.656-5.76 9.344-9.216l17.28-17.28 40.96 40.96-31.744 31.744c-10.368 10.368-16.128 24.192-16.128 38.912s5.76 28.544 16.128 39.04c10.368 10.368 24.192 16.128 38.912 16.128s28.544-5.76 38.912-16.128l31.872-31.872 31.872 31.872c10.368 10.368 24.192 16.128 38.912 16.128s28.544-5.76 38.912-16.128c21.504-21.504 21.504-56.448 0-77.952l-31.872-31.872 40.96-40.96 19.584 19.584 0.384 0.384 2.944 2.944c0.256 0.256 0.512 0.512 0.768 0.64 10.368 9.344 23.808 14.464 37.76 14.464 31.232 0 56.576-25.344 56.576-56.576 0.256-31.104-25.088-56.448-56.32-56.448zM512 345.856l40.96 40.96-40.96 41.088-40.96-40.96 40.96-41.088z m0-36.864l-40.96-40.96 40.96-40.96 40.96 40.96-40.96 40.96zM562.176 176.64c5.504-5.504 12.672-8.448 20.48-8.448s15.104 2.944 20.48 8.448c11.264 11.264 11.264 29.696 0 40.96l-31.872 31.872-40.96-40.96 31.872-31.872z m-141.568 41.088c-11.264-11.264-11.264-29.696 0-40.96 5.504-5.504 12.672-8.448 20.48-8.448s15.104 2.944 20.48 8.448l31.872 31.872-40.96 40.96-31.872-31.872zM301.184 327.68c0-16.768 13.696-30.464 30.464-30.464 7.424 0 14.592 2.688 20.096 7.552l22.784 22.784-24.832 24.832c-5.248 3.84-11.52 5.888-18.048 5.888-16.768-0.128-30.464-13.824-30.464-30.592z m110.208-0.256l41.088-40.96 40.96 40.96-41.088 41.088-40.96-41.088z m50.304 150.784c-5.504 5.504-12.8 8.448-20.48 8.448-7.808 0-15.104-2.944-20.48-8.448-5.504-5.504-8.448-12.672-8.448-20.48s2.944-15.104 8.448-20.48l31.744-31.744 40.96 40.96-31.744 31.744z m141.568-40.96c11.264 11.264 11.264 29.696 0 40.96-5.504 5.504-12.672 8.448-20.48 8.448s-15.104-2.944-20.48-8.448l-31.872-31.872 40.96-41.088 31.872 32z m-72.832-109.824l40.96-40.96 40.96 40.96-40.96 40.96-40.96-40.96z m161.92 30.464c-7.552 0-14.72-2.816-20.352-7.808l-2.432-2.432-0.384-0.384-19.84-19.84 18.432-18.432 5.76-5.76c5.376-4.224 11.904-6.528 18.816-6.528 16.768 0 30.464 13.696 30.464 30.464 0 17.024-13.696 30.72-30.464 30.72z" fill="#002C5B" p-id="1448">
</path>
<path d="M512 162.56c7.168 0 13.056-5.888 13.056-13.056V14.592c0-7.168-5.888-13.056-13.056-13.056s-13.056 5.888-13.056 13.056v134.912c0 7.168 5.888 13.056 13.056 13.056zM524.8 516.352v-16c0-7.168-5.888-13.056-13.056-13.056s-13.056 5.888-13.056 13.056v16c0 7.168 5.888 13.056 13.056 13.056S524.8 523.52 524.8 516.352zM477.056 551.04c0 7.168 5.888 13.056 13.056 13.056h43.264c7.168 0 13.056-5.888 13.056-13.056s-5.888-13.056-13.056-13.056h-43.264c-7.296 0.128-13.056 5.888-13.056 13.056zM544.64 566.272H478.72c-7.168 0-13.056 5.888-13.056 13.056s5.888 13.056 13.056 13.056h66.048c7.168 0 13.056-5.888 13.056-13.056s-5.888-13.056-13.184-13.056zM480.512 598.912c-7.168 0-13.056 5.888-13.056 13.056v397.312c0 7.168 5.888 13.056 13.056 13.056s13.056-5.888 13.056-13.056V611.968c0-7.168-5.888-13.056-13.056-13.056zM512.384 598.912c-7.168 0-13.056 5.888-13.056 13.056v397.312c0 7.168 5.888 13.056 13.056 13.056s13.056-5.888 13.056-13.056V611.968c0-7.168-5.76-13.056-13.056-13.056zM542.848 598.912c-7.168 0-13.056 5.888-13.056 13.056v397.312c0 7.168 5.888 13.056 13.056 13.056s13.056-5.888 13.056-13.056V611.968c0-7.168-5.76-13.056-13.056-13.056z" fill="#002C5B" p-id="1449">
</path>
</svg>
